<?xml version="1.0" encoding="UTF-8" standalone="no"?>
<svg
   xmlns:sketch="http://www.bohemiancoding.com/sketch/ns"
   xmlns:dc="http://purl.org/dc/elements/1.1/"
   xmlns:cc="http://creativecommons.org/ns#"
   xmlns:rdf="http://www.w3.org/1999/02/22-rdf-syntax-ns#"
   xmlns:svg="http://www.w3.org/2000/svg"
   xmlns="http://www.w3.org/2000/svg"
   xmlns:sodipodi="http://sodipodi.sourceforge.net/DTD/sodipodi-0.dtd"
   xmlns:inkscape="http://www.inkscape.org/namespaces/inkscape"
   width="100mm"
   height="100mm"
   viewBox="0 0 354.33072 354.33072"
   version="1.1"
   id="svg4136"
   inkscape:version="0.91 r13725"
   sodipodi:docname="lohgo.svg">
  <sodipodi:namedview
     pagecolor="#ffffff"
     bordercolor="#666666"
     borderopacity="1"
     objecttolerance="10"
     gridtolerance="10"
     guidetolerance="10"
     inkscape:pageopacity="0"
     inkscape:pageshadow="2"
     inkscape:window-width="1440"
     inkscape:window-height="851"
     id="namedview4147"
     showgrid="false"
     units="mm"
     inkscape:document-units="mm"
     inkscape:zoom="1.1472808"
     inkscape:cx="100"
     inkscape:cy="100"
     inkscape:window-x="0"
     inkscape:window-y="0"
     inkscape:window-maximized="1"
     inkscape:current-layer="svg4136" />
  <metadata
     id="metadata4149">
    <rdf:RDF>
      <cc:Work
         rdf:about="">
        <dc:format>image/svg+xml</dc:format>
        <dc:type
           rdf:resource="http://purl.org/dc/dcmitype/StillImage" />
        <dc:title>lohgo</dc:title>
      </cc:Work>
    </rdf:RDF>
  </metadata>
  <!-- Generator: Sketch 3.3.3 (12072) - http://www.bohemiancoding.com/sketch -->
  <title
     id="title4138">lohgo</title>
  <desc
     id="desc4140">Created with Sketch.</desc>
  <defs
     id="defs4142" />
  <path
     inkscape:connector-curvature="0"
     sketch:type="MSShapeGroup"
     id="Oval-1"
     d="M12.2603 112.27554L14.7986531754 106.169007072L17.5557246765 100.180068932L20.5265131846 94.3137268944L23.7060173809 88.5749822704L27.0892359465 82.9688363728L30.6711675627 77.5002905139L34.4468109108 72.1743460063L38.4111646719 66.9960041623L42.5592275272 61.9702662944L46.885998158 57.102133715L51.3864752454 52.3966077366L56.0556574707 47.8586896716L60.8885435151 43.4933808324L65.8801320598 39.3056825315L71.025421786 35.3005960813L76.319411375 31.4831227943L81.7570995079 27.8582639828L87.333484866 24.4310209594L93.0435661304 21.2063950364L98.8823419824 18.1893875264L104.844811103 15.3849997416L110.925972174 12.7982329947L117.120823876 10.4340885979L123.424364891 8.2975678638L129.831593899 6.39367210477L136.337509582 4.72740263326L142.937110621 3.30376076171L149.625395697 2.12774780255L156.397363492 1.20436506822L163.248012687 0.538613871158L170.172341962 0.135495523799L177.16535 1.1338583e-05L184.246102555 0.138922883205L191.256368916 0.552195586245L198.19095619 1.23463655147L205.044671484 2.18105288263L211.812321906 3.38625168349L218.488714561 4.84504005783L225.068656556 6.55222510938L231.546955 8.50261394193L237.918416998 10.6910136592L244.177849658 13.112231365L250.320060087 15.7610741631L256.339855391 18.6323491572L262.232042677 21.7208634511L267.991429053 25.0214241486L273.612821625 28.5288383534L279.0910275 32.2379131693L284.420853785 36.1434557L289.597107588 40.2402730493L294.614596014 44.523172321L299.468126172 48.9869606188L304.152505167 53.6264450466L308.662540107 58.4364327079L312.993038099 63.4117307067L317.13880625 68.5471461467L321.094651666 73.8374861315L324.855381455 79.2775577651L328.415802723 84.8621681512L331.770722578 90.5861243935L334.914948126 96.4442335957L337.843286475 102.431302862L340.55054473 108.542139295L343.03153 114.77155L343.03153 114.77155L277.22006 114.77155L271.753287864 114.946969773L266.091954785 115.462545527L260.276757009 116.302251917L254.348390781 117.450063594L248.347552346 118.889955212L242.314937949 120.605901426L236.291243835 122.581876887L230.31716625 124.80185625L224.433401438 127.249814167L218.680645645 129.909725293L213.099595115 132.76556428L207.730946094 135.801305781L202.615394827 139.000924451L197.793637559 142.348394941L193.306370535 145.827691907L189.19429 149.42279L158.23967 178.29373L155.047565549 181.070624485L151.514143607 183.779155254L147.678243171 186.404035154L143.578703234 188.929977031L139.254362792 191.341693733L134.744060838 193.623898105L130.086636367 195.761302996L125.320928375 197.73862125L120.485775855 199.540565715L115.620017803 201.151849238L110.762493212 202.557184666L105.952041078 203.741284844L101.227500395 204.68886262L96.6277101582 205.38463084L92.1915093616 205.813302351L87.957737 205.95959L2.3281193 205.95959L1.31816737547 198.885742188L0.58967450875 191.72493L0.148374212656 184.482892813L0.0 177.16537L0.276513532813 167.182687969L1.0962934375 157.34495375L2.44469867344 147.666802656L4.3070882 138.16287L66.923872 138.16287L67.718111533 140.502689856L68.692176373 142.753621191L69.8374737571 144.907099783L71.1454109219 146.954561406L72.6073951042 148.887441838L74.214833541 150.697176855L75.959133469 152.375202234L77.831702125 153.91295375L79.8239467458 155.30186718L81.9272745684 156.533378301L84.1330928293 157.598922888L86.4328087656 158.489936719L88.817829614 159.197855569L91.2795626113 159.714115215L93.8094149944 160.030151433L96.398794 160.1374L99.5392076367 159.979347805L102.588904906 159.515449785L105.532446848 158.761093787L108.3543945 157.731667656L111.039308902 156.442559241L113.571751094 154.909156387L115.936282113 153.146846941L118.117463 151.17101875L120.099854793 148.997059661L121.868018531 146.64035752L123.406515254 144.116300173L124.699906 141.440275469L125.732751809 138.627671252L126.489613719 135.693875371L126.95505277 132.654275671L127.11363 129.52426L126.95505277 126.394242961L126.489613719 123.354642832L125.732751809 120.420847341L124.699906 117.608244219L123.406515254 114.932221194L121.868018531 112.408165996L120.099854793 110.051466355L118.117463 107.87751L115.936282113 105.901684661L113.571751094 104.139378066L111.039308902 102.605977947L108.3543945 101.316872031L105.532446848 100.287448049L102.588904906 99.5330937305L99.5392076367 99.0691968042L96.398794 98.911145L92.5077515078 99.1544576758L88.7627186875 99.8646848438L85.1933605234 101.012260215L81.829342 102.5676175L78.7003281016 104.50119041L75.8359838125 106.783412656L73.2659741172 109.384717949L71.019964 112.27554L68.818659 112.27554L12.2603 112.27554L12.2603 112.27554L12.2603 112.27554L12.2603 112.27554M64.905059 314.23122L70.7340486267 318.811305388L76.755653498 323.14918623L82.9625211633 327.237510168L89.3472991719 331.068924844L95.902635073 334.636077898L102.621176416 337.931616973L109.49557075 340.948189709L116.518465625 343.67844375L123.68250859 346.115026736L130.980347193 348.250586309L138.404628986 350.07777011L145.948001516 351.589225781L153.603112333 352.777600964L161.362608986 353.635543301L169.219139026 354.155700432L177.16535 354.33072L186.282253593 354.100193458L195.279474526 353.416034929L204.145881155 352.28937606L212.870341836 350.731348496L221.441724924 348.753083884L229.848898774 346.36571387L238.080731744 343.580370099L246.126092187 340.408184219L253.973848461 336.860287874L261.612868921 332.947812712L269.032021922 328.681890379L276.22017582 324.07365252L283.166198972 319.134230781L289.858959731 313.874756809L296.287326456 308.30636225L302.4401675 302.44017875L308.30635122 296.287337955L313.874745972 289.858971511L319.13422011 283.166211065L324.073641992 276.220188262L328.681879973 269.032034748L332.947802407 261.61288217L336.860277652 253.973862174L340.408174062 246.126106406L343.580359995 238.080746512L346.365703804 229.848914138L348.753073846 221.44174093L350.731338477 212.870358535L352.289366052 204.145898598L353.416024927 195.279492766L354.100183458 186.282272685L354.33071 177.16537L354.089417187 167.838463906L353.373485 158.63713125L352.194832812 149.573297969L350.56538 140.65889L350.56538 140.65889L277.22006 140.65889L272.985918123 140.805165891L268.549539668 141.233805254L263.949738528 141.929525623L259.225328594 142.877044531L254.415123757 144.061079514L249.55793791 145.466348105L244.692584944 147.077567839L239.85787875 148.87945625L235.09263322 150.856730872L230.435662246 152.994109238L225.925779719 155.276308884L221.601799531 157.688047344L217.502535574 160.214042151L213.666801738 162.83901084L210.133411917 165.547670945L206.94118 168.32474L175.98657 197.19568L171.874562875 200.790649553L167.387214408 204.269851113L162.56524646 207.617255906L157.449380891 210.816835156L152.080339562 213.85256009L146.498844334 216.708401934L140.745617068 219.368331912L134.861379625 221.81632125L128.886853865 224.036341174L122.86276165 226.01236291L116.829824841 227.728357683L110.828765297 229.168296719L104.90030488 230.316151243L99.0851654512 231.15589248L93.4240688708 231.671491658L87.957737 231.84692L8.5995425 231.84692L11.2989228799 239.558429883L14.3391847578 247.102964687L17.7110474287 254.471243398L21.4052301875 261.653985L25.4124523291 268.641908477L29.7234331484 275.425732812L34.3288919404 281.996176992L39.219548 288.34396L144.63285 288.34389L147.447035625 288.244691033L150.405578906 287.954237012L153.481262578 287.483242258L156.646869375 286.842421094L163.138983281 285.094156816L169.6641825 282.79515875L176.004728906 280.031141465L181.942884375 276.887819531L184.693022344 275.200705125L187.260910781 273.45090752L189.619332422 271.649141038L191.74107 269.80612L236.57125 227.99368L235.90989 225.693106094L235.4279675 223.32239875L235.13317375 220.889222031L235.0332 218.40124L235.191777229 215.271224216L235.65721627 212.231624199L236.414078152 209.297827825L237.446923906 206.485222969L238.740314563 203.809197507L240.278811152 201.285139316L242.046974705 198.928436272L244.02936625 196.75447625L246.210546819 194.778647126L248.575077441 193.016336777L251.107519148 191.482933079L253.792432969 190.193823906L256.614379934 189.164397136L259.557921074 188.410040645L262.607617419 187.946142307L265.74803 187.78809L268.888444341 187.946142307L271.938142227 188.410040645L274.881684702 189.164397136L277.703632812 190.193823906L280.388547603 191.482933079L282.920990117 193.016336777L285.285521401 194.778647126L287.4667025 196.75447625L289.449094458 198.928436272L291.21725832 201.285139316L292.755755132 203.809197507L294.049145937 206.485222969L295.081991782 209.297827825L295.838853711 212.231624199L296.304292769 215.271224216L296.46287 218.40124L296.304292769 221.531255784L295.838853711 224.570855801L295.081991782 227.504652175L294.049145937 230.317257031L292.755755132 232.993282493L291.21725832 235.517340684L289.449094458 237.874043728L287.4667025 240.04800375L285.285521401 242.023832874L282.920990117 243.786143223L280.388547603 245.319546921L277.703632812 246.608656094L274.881684702 247.638082864L271.938142227 248.392439355L268.888444341 248.856337693L265.74803 249.01439L262.769622812 248.872299219L259.8719775 248.45476625L257.068235937 247.774900156L254.37154 246.84581L209.48797 288.70803L206.446252295 291.369197417L203.133833516 293.941688555L199.579814541 296.414049243L195.81329625 298.774825312L191.863379521 301.012562593L187.759165234 303.115806914L183.529754268 305.073104106L179.2042475 306.873L174.811745811 308.504040425L170.381350078 309.954771211L165.942161182 311.213738188L161.52328 312.269487187L157.153807412 313.110564038L152.862844297 313.72551457L148.679491533 314.102884614L144.63285 314.23122L64.905059 314.23122L64.905059 314.23122L64.905059 314.23122L64.905059 314.23122M264.8447 229.16265L266.840562793 228.960782129L268.699514844 228.381815781L270.38173291 227.465706855L271.84739375 226.25241125L273.056674121 224.781884863L273.969750781 223.094083594L274.546800488 221.22896334L274.748 219.22648L274.546800488 217.223983027L273.969750781 215.358851719L273.056674121 213.671041738L271.84739375 212.20050875L270.38173291 210.987208418L268.699514844 210.071096406L266.840562793 209.492128379L264.8447 209.29026L262.84885041 209.492128379L260.989908281 210.071096406L259.307697324 210.987208418L257.84204125 212.20050875L256.63276377 213.671041738L255.719688594 215.358851719L255.142639434 217.223983027L254.94144 219.22648L255.142639434 221.22896334L255.719688594 223.094083594L256.63276377 224.781884863L257.84204125 226.25241125L259.307697324 227.465706855L260.989908281 228.381815781L262.84885041 228.960782129L264.8447 229.16265L264.8447 229.16265L264.8447 229.16265M95.714171 140.85331L97.7100264316 140.651441699L99.5689721406 140.072474219L101.251184873 139.156363691L102.716841375 137.94306625L103.926118393 136.472538027L104.839192672 134.784735156L105.416240959 132.91961377L105.61744 130.91713L105.416240959 128.91464623L104.839192672 127.049524844L103.926118393 125.361721973L102.716841375 123.89119375L101.251184873 122.677896309L99.5689721406 121.761785781L97.7100264316 121.182818301L95.714171 120.98095L93.7183170898 121.182818301L91.8593722812 121.761785781L90.177159957 122.677896309L88.7115035 123.89119375L87.502226293 125.361721973L86.5891517188 127.049524844L86.0121031602 128.91464623L85.810904 130.91713L86.0121031602 132.91961377L86.5891517188 134.784735156L87.502226293 136.472538027L88.7115035 137.94306625L90.177159957 139.156363691L91.8593722812 140.072474219L93.7183170898 140.651441699L95.714171 140.85331L95.714171 140.85331L95.714171 140.85331"
     style="fill:#515ca0;fill-rule:evenodd;stroke:none;stroke-width:1" />
</svg>
